<?xml version="1.0" standalone="no"?>
<!DOCTYPE svg PUBLIC "-//W3C//DTD SVG 20010904//EN"
 "http://www.w3.org/TR/2001/REC-SVG-20010904/DTD/svg10.dtd">
<svg version="1.0" xmlns="http://www.w3.org/2000/svg"
 width="1024.000000pt" height="1024.000000pt" viewBox="0 0 1024.000000 1024.000000"
 preserveAspectRatio="xMidYMid meet">
<metadata>
Created by potrace 1.11, written by Peter Selinger 2001-2013
</metadata>
<g transform="translate(0.000000,1024.000000) scale(0.100000,-0.100000)"
fill="#000000" stroke="none">
<path d="M4905 8093 c-830 -33 -1610 -237 -2233 -584 -706 -393 -1174 -932
-1331 -1534 -58 -221 -67 -533 -21 -760 102 -512 440 -994 977 -1397 244 -182
547 -346 818 -443 81 -29 125 -58 125 -82 0 -69 -307 -507 -695 -992 -80 -100
-145 -185 -145 -188 0 -9 230 6 351 23 524 72 1127 369 1638 808 l103 88 162
-13 c227 -20 772 -17 986 4 1010 102 1810 400 2460 916 126 100 317 292 416
416 212 268 350 552 416 855 19 92 22 134 23 335 0 258 -13 349 -82 555 -220
660 -844 1249 -1703 1607 -664 277 -1486 418 -2265 386z"/>
</g>
</svg>
